<svg height="64" viewBox="0 0 221 64" width="221" xmlns="http://www.w3.org/2000/svg"><g fill="none" fill-rule="evenodd"><path d="m78 5h8.3897158v12.6642857l10.6339648-12.6642857h10.4871444l-11.9553446 12.9857143 13.4445196 20.0142857h-10.4871448l-8.6833559-13.8642857-3.4397835 3.6857143v10.1785714h-8.3897158z" fill="#646363" fill-rule="nonzero"/><path d="m124.989467 4c10.196181 0 16.010533 7.565 16.010533 17s-5.814352 17-16.010533 17c-10.196182 0-15.989467-7.565-15.989467-17s5.814352-17 15.989467-17zm0 26.775c5.456221 0 7.56287-4.8025 7.56287-9.71125s-2.106649-9.69-7.56287-9.69-7.541804 4.8025-7.541804 9.71125 2.085583 9.69 7.541804 9.69z" fill="#646363" fill-rule="nonzero"/><path d="m146 5h14.026798c9.985896 0 15.973202 6.15 15.973202 16.3714286 0 10.7142857-6.071932 16.6285714-15.973202 16.6285714h-14.026798zm8.462623 25.7142857h4.019747c6.346967-.15 8.991537-2.6785714 8.991537-9.3 0-6.0428571-3.152327-8.9142857-8.991537-8.9142857h-4.019747z" fill="#646363" fill-rule="nonzero"/><path d="m181 5h8v33h-8z" fill="#646363" fill-rule="nonzero"/><path d="m201.372856 26.3210952c.18792 3.8506534 2.484713 5.0777847 6.076063 5.0777847 2.526472 0 5.136465-.9097698 5.136465-3.3428749 0-2.9197262-4.593587-3.4063473-9.228934-4.7392657-4.635346-1.3329185-9.416853-3.3851898-9.416853-9.4150592 0-7.10889852 7.0783-9.9016801 13.112603-9.9016801s12.882923 3.19477287 12.882923 10.5787181h-8.351976c.146159-2.9197262-2.651753-3.9352831-5.178225-3.9352831-1.795675 0-4.050709.6347231-4.050709 2.7927816 0 2.5388923 4.635347 2.962041 9.333334 4.2314872 4.697986 1.2694462 9.312453 3.5332918 9.312453 9.4150591 0 8.2514001-6.93214 10.9172371-14.01044 10.9172371s-13.98956-3.3851898-13.98956-11.6789048z" fill="#646363" fill-rule="nonzero"/><path d="m29.510828.00401198c3.3359999-.09391087 6.5065132 1.46562973 8.489172 4.17573035v2.82025767h-17v-2.84212014c2.0013968-2.6965402 5.1743499-4.24515898 8.510828-4.15386788" fill="#e10000"/><path d="m0 1h3.36526181v3.19860627h3.43039592v-3.19860627h3.40868457v3.19860627h3.4086845v-3.19860627h3.3869732v6h-17z" fill="#e10000"/><path d="m42 1h3.3652618v3.20833333h3.4303959v-3.20833333h3.4086846l.0217113 3.1875h3.3869732v-3.1875h3.3869732v6l-17-.02083333z" fill="#e10000"/><path d="m1 9h14v8h-14z" fill="#e10000" fill-rule="nonzero"/><path d="m22 9h14v8h-14z" fill="#e10000" fill-rule="nonzero"/><path d="m43 9h14v8h-14z" fill="#e10000" fill-rule="nonzero"/><path d="m1 19h14v7h-14z" fill="#e10000" fill-rule="nonzero"/><path d="m22 19h14v7h-14z" fill="#e10000" fill-rule="nonzero"/><path d="m43 19h14v7h-14z" fill="#e10000" fill-rule="nonzero"/><path d="m2 28h13.7026406v3h6.9670877v-3h13.7447378v3h6.8828933v-3h13.7026406v6h-55z" fill="#e10000"/><path d="m2 39h55c-.2934877 2.0377644-.7535214 4.0451843-1.375 6h-52.29230769c-.67678654-1.9350157-1.12437953-3.950153-1.33269231-6" fill="#e10000"/><path d="m5 49.0211864h49c-1.0851796 1.7816346-2.3485486 3.4497057-3.7708696 4.9788136h-41.58608692c-1.38521634-1.517202-2.57991413-3.1961735-3.55782609-5" fill="#e10000"/><path d="m44 60c-4.5123059 2.5913407-9.7015671 3.9747352-15 3.9988193-5.3090913.0475397-10.5191982-1.341412-15-3.9988193z" fill="#e10000"/><g fill-rule="nonzero"><path d="m78.0437956 50h2.189781v3.7262443l3.7445256-3.7262443h2.649635l-3.7883211 3.5429864 4.1605839 5.4570136h-2.6715328l-2.9343066-4.0723982-1.2043796 1.1606335v2.8914027h-2.189781z" fill="#878787"/><path d="m92.5103192 50.2548685c1.2534408-.0167913 2.4552531.5050368 3.30763 1.4361761s1.2755521 2.1844531 1.1646637 3.4493723c.1135747 1.6958555-.7150984 3.3145138-2.148867 4.1974106-1.4337686.8828967-3.2336945.8828967-4.667463 0-1.4337686-.8828968-2.2624418-2.5015551-2.148867-4.1974106-.1113026-1.2685957.3145805-2.525372 1.1715516-3.4572357.8569711-.9318638 2.0643508-1.4510848 3.3213517-1.4283127zm0 7.9755534c1.7930394 0 2.4731578-1.5658809 2.4731578-3.090005s-.6801184-3.1735186-2.4731578-3.1735186-2.4937674 1.5450025-2.4937674 3.1735186c0 1.6285162.6801183 3.090005 2.4937674 3.090005zm-2.225842-10.2304219h1.7312104v1.5241241h-1.7312104zm2.638035 0h1.7312104v1.5241241h-1.7312104z" fill="#878787"/><path d="m99.1645244 50.0054516h4.9151676c.691576-.0457954 1.370945.1984918 1.87451.6740353.503565.4755436.785693 1.1392506.778446 1.8312955.090446.9971878-.499447 1.9312234-1.439589 2.2794404.987147.2669615 1.254499 1.1910589 1.316195 2.0535498-.037794.7391999.095931 1.4771263.390746 2.1562274h-2.056555c-.180535-.7131316-.290743-1.442194-.329049-2.1767629-.143959-.9446329-.493573-1.3758784-1.501285-1.3758784h-2.056556v3.5526413h-2.056555zm2.0565556 4.1070997h2.200514c.904884 0 1.377892-.3901745 1.377892-1.2937364s-.473008-1.2732009-1.377892-1.2732009h-2.262211z" fill="#878787"/><path d="m109 50h4.492705c1.814361 0 3.045535.5497738 3.045535 2.219457.011691.8195846-.49905 1.5658758-1.295972 1.8936652 1.101039.2479185 1.844611 1.2171591 1.749563 2.280543 0 1.8325791-1.641565 2.6063348-3.369529 2.6063348h-4.622302zm2.159954 3.6447964h2.159955c.734384 0 1.274373-.3257919 1.274373-1.0791855 0-.7533937-.691186-1.0384616-1.44717-1.0384616h-1.965558zm0 3.8076923h2.159955c.820782 0 1.555167-.2443439 1.555167-1.1809955s-.604788-1.2828054-1.511968-1.2828054h-2.267952z" fill="#878787"/><path d="m119 50h6.895833v1.6696833h-4.875v1.9140271h4.458334v1.5475113h-4.458334v2.199095h4.979167v1.6696833h-7z" fill="#878787"/><path d="m127 50.0069001h4.997375c.709598-.0517966 1.408888.189762 1.927757.6659127.518868.4761507.809757 1.14325.801902 1.8390147.085007.995287-.514702 1.9251867-1.469816 2.2790732 1.007874.2669185 1.28084 1.1908672 1.343832 2.0532192-.038589.7390808.097944 1.4768883.39895 2.1558801h-2.099738c-.194397-.7109986-.30708-1.4409831-.335958-2.1764123-.146981-.9444808-.524934-1.3756568-1.553805-1.3756568h-1.910761v3.5520691h-2.099738zm2.099738 4.1064383h2.246719c.923884 0 1.406824-.3901116 1.406824-1.293528 0-.9034165-.48294-1.2729959-1.406824-1.2729959h-2.246719z" fill="#878787"/><path d="m143.086542 56.6521739c0 1.2826087.98916 1.7826087 2.150348 1.7826087.731119 0 1.8493-.2173913 1.8493-1.1956522 0-.9782608-1.440734-1.1956521-2.816957-1.5869565-1.376223-.3913043-2.859963-.9565217-2.859963-2.7391304s1.849299-2.9130435 3.569578-2.9130435 3.827621.7826087 3.827621 3.0217391h-2.150349c0-1.1521739-.860139-1.4565217-1.870803-1.4565217-.666608 0-1.440734.2826087-1.440734 1.0869565s.451574.8478261 2.83846 1.4565218c.688112.1521739 2.816957.6304347 2.816957 2.8043478 0 1.7608695-1.35472 3.0869565-3.956641 3.0869565-2.150349 0-4.085662-1.0652174-4.042656-3.4347826z" fill="#878787"/><path d="m154.489681 50.0007375c1.257001-.0233659 2.46438.5093952 3.321351 1.4655599.856972.9561646 1.282855 2.2457148 1.171552 3.5473926.113575 1.7400796-.715098 3.4009488-2.148867 4.3068695-1.433768.9059207-3.233694.9059207-4.667463 0-1.433768-.9059207-2.262442-2.5667899-2.148867-4.3068695-.110888-1.2979054.312287-2.5839028 1.164664-3.5393241.852377-.9554214 2.054189-1.4908575 3.30763-1.4736284zm0 8.1835378c1.813649 0 2.493767-1.6067155 2.493767-3.1705853s-.680118-3.2562768-2.493767-3.2562768-2.473158 1.5852926-2.473158 3.2562768.618289 3.1705853 2.473158 3.1705853z" fill="#878787"/><path d="m161 50h2.258065v7.3303167h4.741935v1.6696833h-7z" fill="#878787"/><path d="m177.874674 56.0545408c.095287 1.1070592-.299059 2.1987102-1.06956 2.9608103-.7705.7621-1.831701 1.110127-2.878221.9439297-2.48564 0-3.926893-1.2503942-3.926893-3.90474v-6.0545408h2.088773v6.032604c0 1.0529636.27154 2.1936742 1.900783 2.1936742s1.921671-.6581022 1.921671-2.1936742v-6.032604h2.088773z" fill="#878787"/><path d="m181.885246 51.6900452h-2.885246v-1.6900452h8v1.6696833h-2.972678v7.3303167h-2.185792z" fill="#878787"/><path d="m188 50h2v9h-2z" fill="#878787"/><path d="m196.5 50.0004174c1.256322-.0178316 2.460896.5363285 3.315232 1.5251606.854336.988832 1.278484 2.3198002 1.167341 3.6630929 0 2.6572237-2.006916 4.8113291-4.482573 4.8113291s-4.482573-2.1541054-4.482573-4.8113291c-.111143-1.3432927.313005-2.6742609 1.167341-3.6630929.854336-.9888321 2.05891-1.5429922 3.315232-1.5251606zm0 8.469713c1.797161 0 2.478842-1.6629018 2.478842-3.2814595s-.681681-3.3701475-2.478842-3.3701475-2.478842 1.6407297-2.478842 3.3701475.681681 3.2814595 2.478842 3.2814595z" fill="#878787"/><path d="m203 50h2.12766l3.93617 6.1085973v-6.1085973h1.93617v9h-2.12766l-3.914893-6.1085973v6.1085973h-1.957447z" fill="#878787"/><path d="m215.080943 56.6024938c0 1.268689.965063 1.7632627 2.144586 1.7632627.729159 0 1.865789-.215032 1.865789-1.1826762s-1.436872-1.1826762-2.830853-1.5697339-2.830854-.946141-2.830854-2.7094037c.075188-.858037.494035-1.6488726 1.160876-2.1918763s1.524719-.7917965 2.377691-.689553c1.994465 0 3.817363.8601282 3.817363 3.0749582h-2.144586c0-1.1396698-.857834-1.4407147-1.86579-1.4407147-.664821 0-1.436872.2795417-1.436872 1.0751602s.450363.838625 2.830853 1.4407147c.707714.1505224 2.830854.6235929 2.830854 2.7739133 0 1.7417595-1.372535 3.0534549-3.946038 3.0534549-2.144586 0-4.09616-1.053657-4.053268-3.3975062z" fill="#878787"/></g></g></svg>