<?xml version="1.0" encoding="UTF-8" standalone="no"?>
<svg
   xmlns:dc="http://purl.org/dc/elements/1.1/"
   xmlns:cc="http://creativecommons.org/ns#"
   xmlns:rdf="http://www.w3.org/1999/02/22-rdf-syntax-ns#"
   xmlns:svg="http://www.w3.org/2000/svg"
   xmlns="http://www.w3.org/2000/svg"
   xmlns:sodipodi="http://sodipodi.sourceforge.net/DTD/sodipodi-0.dtd"
   xmlns:inkscape="http://www.inkscape.org/namespaces/inkscape"
   version="1.1"
   id="svg2"
   xml:space="preserve"
   width="2266.8667"
   height="1333.3333"
   viewBox="0 0 2266.8667 1333.3333"
   sodipodi:docname="Koerber_Logo_RGB_White(1).eps"><metadata
     id="metadata8"><rdf:RDF><cc:Work
         rdf:about=""><dc:format>image/svg+xml</dc:format><dc:type
           rdf:resource="http://purl.org/dc/dcmitype/StillImage" /></cc:Work></rdf:RDF></metadata><defs
     id="defs6" /><sodipodi:namedview
     pagecolor="#ffffff"
     bordercolor="#666666"
     borderopacity="1"
     objecttolerance="10"
     gridtolerance="10"
     guidetolerance="10"
     inkscape:pageopacity="0"
     inkscape:pageshadow="2"
     inkscape:window-width="640"
     inkscape:window-height="480"
     id="namedview4" /><g
     id="g10"
     inkscape:groupmode="layer"
     inkscape:label="ink_ext_XXXXXX"
     transform="matrix(1.3333333,0,0,-1.3333333,0,1333.3333)"><g
       id="g12"
       transform="scale(0.1)"><path
         d="M 2504.34,4999.94 3698.18,3806.45 3159,3806.13 2094.84,4862.52 2094.83,3806.45 h -419.09 l 0.01,2387.42 h 419.11 l -0.01,-1061.75 1064.36,1061.73 h 539.13 z m 9428.76,795.92 v -593.77 h 979.1 v -397.83 h -979.1 v -596.97 h 1179.1 v -401 h -1586.5 v 2387.42 h 1586.5 v -397.85 z m -1505.4,-487.39 c -58.8,-56.91 -154.5,-85.75 -284.4,-85.75 h -585.74 v 589.58 h 576.24 c 128.9,0 226.5,-25.8 289.9,-76.66 62,-49.82 92.1,-118.58 92.1,-210.19 0,-88.65 -28.8,-159.63 -88.1,-216.98 z m 15.8,-1028.94 c -68.5,-58.86 -168.4,-88.69 -297,-88.69 h -588.94 v 640.4 h 563.54 c 151.6,0 261.7,-28.73 327,-85.42 64.8,-56.21 96.3,-132.48 96.3,-233.19 0,-98.51 -33,-174.73 -100.9,-233.1 z m 424.8,568.37 c -48.6,77.16 -115,144.29 -197.6,192.93 76.1,47.68 136.2,108.11 179.1,180.21 52.6,88.5 79.3,190.91 79.3,304.41 0,208.43 -73,374.12 -217,492.47 -142,116.7 -336.6,175.87 -578.3,175.87 H 9150.74 V 3806.21 h 995.76 c 243.7,0 441.4,60.18 587.7,178.89 148.3,120.45 223.4,295.77 223.4,521.15 0,132.78 -30,247.73 -89.3,341.65 z m -2796.38,591.59 c 0,-119.04 -49.34,-232.4 -144.35,-305.71 -92.62,-71.46 -208.92,-99.64 -324.03,-102.89 -107.9,-3.05 -413.84,-0.36 -458.69,-0.36 v 793.96 c 109.97,0 219.95,0 329.93,0 150.35,0 312.97,5.92 443.29,-81.29 102.54,-68.62 153.85,-182.23 153.85,-303.71 z m -20.9,-670.71 c 256.64,113.6 436.14,359.66 443.09,643.79 7.35,300.13 -162.94,558.59 -431.86,686.14 -168.51,79.92 -347.8,95.14 -531.17,95.14 -150.67,0 -687.57,0 -805.34,0 V 3806.43 h 419.11 v 857.71 h 508.36 l 511.8,-857.99 h 491.6 z M 5590.64,6734.42 c 0,-127.02 -102.97,-230 -230,-230 -127.02,0 -230,102.98 -230,230 0,127.03 102.98,230 230,230 127.03,0 230,-102.97 230,-230 z m -721.3,0 c 0,-127.02 -102.97,-230 -230,-230 -127.02,0 -230,102.98 -230,230 0,127.03 102.98,230 230,230 127.03,0 230,-102.97 230,-230 z M 15008.1,5439.49 c 0,-119.04 -49.3,-232.4 -144.3,-305.71 -92.6,-71.46 -208.9,-99.64 -324.1,-102.89 -107.9,-3.05 -413.8,-0.36 -458.7,-0.36 v 793.96 c 110,0 220,0 330,0 150.3,0 312.9,5.92 443.3,-81.29 102.5,-68.62 153.8,-182.23 153.8,-303.71 z m -20.9,-670.71 c 256.7,113.6 436.2,359.66 443.1,643.79 7.4,300.13 -162.9,558.59 -431.8,686.14 -168.6,79.92 -347.9,95.14 -531.2,95.14 -150.7,0 -687.6,0 -805.4,0 V 3806.43 h 419.1 v 857.71 h 508.4 l 511.8,-857.99 h 491.6 z M 12001.5,389.992 c -1257.6,0 -2398.69,506.707 -3231.26,1326.028 359.12,411.94 650.76,883.86 860.42,1397.92 h -426.27 c -181.93,-403.28 -419.26,-776.41 -703.66,-1108.43 -284.4,332.02 -521.74,705.15 -703.63,1108.43 h -426.28 c 209.66,-514.06 501.3,-985.98 860.42,-1397.92 C 7398.69,896.699 6257.6,389.992 5000,389.992 2458.03,389.992 390.004,2458.03 390.004,5000 c 0,2541.97 2068.026,4610.01 4609.996,4610.01 1257.6,0 2398.69,-506.71 3231.24,-1326.02 -359.12,-411.95 -650.76,-883.87 -860.42,-1397.93 h 426.28 c 181.89,403.28 419.23,776.42 703.63,1108.43 284.4,-332.01 521.73,-705.15 703.66,-1108.43 h 426.27 c -209.66,514.06 -501.3,985.98 -860.42,1397.93 832.57,819.31 1973.66,1326.02 3231.26,1326.02 2542,0 4610,-2068.04 4610,-4610.01 0,-2541.97 -2068,-4610.008 -4610,-4610.008 z m 0,9610.008 C 10638.3,10000 9402.72,9454.21 8500.73,8569.52 7598.77,9454.21 6363.23,10000 5000,10000 2238.59,10000 -0.00390625,7761.42 -0.00390625,5000 -0.00390625,2238.58 2238.59,0 5000,0 6363.23,0 7598.77,545.801 8500.73,1430.48 9402.72,545.801 10638.3,0 12001.5,0 c 2761.4,0 5000,2238.58 5000,5000 0,2761.42 -2238.6,5000 -5000,5000 z M 5000,4170.01 c -458.39,0 -829.99,371.6 -829.99,829.99 0,458.39 371.6,829.99 829.99,829.99 458.39,0 829.99,-371.6 829.99,-829.99 0,-458.39 -371.6,-829.99 -829.99,-829.99 z m 0,2067.49 c -683.45,0 -1237.5,-554.05 -1237.5,-1237.5 0,-683.45 554.05,-1237.5 1237.5,-1237.5 683.45,0 1237.5,554.05 1237.5,1237.5 0,683.45 -554.05,1237.5 -1237.5,1237.5"
         style="fill:#ffffff;fill-opacity:1;fill-rule:nonzero;stroke:none"
         id="path14" /><path
         d="M 2504.34,4999.94 3698.18,3806.45 3159,3806.13 2094.84,4862.52 2094.83,3806.45 h -419.09 l 0.01,2387.42 h 419.11 l -0.01,-1061.75 1064.36,1061.73 h 539.13 z m 9428.76,795.92 v -593.77 h 979.1 v -397.83 h -979.1 v -596.97 h 1179.1 v -401 h -1586.5 v 2387.42 h 1586.5 v -397.85 z m -1505.4,-487.39 c -58.8,-56.91 -154.5,-85.75 -284.4,-85.75 h -585.74 v 589.58 h 576.24 c 128.9,0 226.5,-25.8 289.9,-76.66 62,-49.82 92.1,-118.58 92.1,-210.19 0,-88.65 -28.8,-159.63 -88.1,-216.98 z m 15.8,-1028.94 c -68.5,-58.86 -168.4,-88.69 -297,-88.69 h -588.94 v 640.4 h 563.54 c 151.6,0 261.7,-28.73 327,-85.42 64.8,-56.21 96.3,-132.48 96.3,-233.19 0,-98.51 -33,-174.73 -100.9,-233.1 z m 424.8,568.37 c -48.6,77.16 -115,144.29 -197.6,192.93 76.1,47.68 136.2,108.11 179.1,180.21 52.6,88.5 79.3,190.91 79.3,304.41 0,208.43 -73,374.12 -217,492.47 -142,116.7 -336.6,175.87 -578.3,175.87 H 9150.74 V 3806.21 h 995.76 c 243.7,0 441.4,60.18 587.7,178.89 148.3,120.45 223.4,295.77 223.4,521.15 0,132.78 -30,247.73 -89.3,341.65 z m -2796.38,591.59 c 0,-119.04 -49.34,-232.4 -144.35,-305.71 -92.62,-71.46 -208.92,-99.64 -324.03,-102.89 -107.9,-3.05 -413.84,-0.36 -458.69,-0.36 v 793.96 c 109.97,0 219.95,0 329.93,0 150.35,0 312.97,5.92 443.29,-81.29 102.54,-68.62 153.85,-182.23 153.85,-303.71 z m -20.9,-670.71 c 256.64,113.6 436.14,359.66 443.09,643.79 7.35,300.13 -162.94,558.59 -431.86,686.14 -168.51,79.92 -347.8,95.14 -531.17,95.14 -150.67,0 -687.57,0 -805.34,0 V 3806.43 h 419.11 v 857.71 h 508.36 l 511.8,-857.99 h 491.6 z M 5590.64,6734.42 c 0,-127.02 -102.97,-230 -230,-230 -127.02,0 -230,102.98 -230,230 0,127.03 102.98,230 230,230 127.03,0 230,-102.97 230,-230 z m -721.3,0 c 0,-127.02 -102.97,-230 -230,-230 -127.02,0 -230,102.98 -230,230 0,127.03 102.98,230 230,230 127.03,0 230,-102.97 230,-230 z M 15008.1,5439.49 c 0,-119.04 -49.3,-232.4 -144.3,-305.71 -92.6,-71.46 -208.9,-99.64 -324.1,-102.89 -107.9,-3.05 -413.8,-0.36 -458.7,-0.36 v 793.96 c 110,0 220,0 330,0 150.3,0 312.9,5.92 443.3,-81.29 102.5,-68.62 153.8,-182.23 153.8,-303.71 z m -20.9,-670.71 c 256.7,113.6 436.2,359.66 443.1,643.79 7.4,300.13 -162.9,558.59 -431.8,686.14 -168.6,79.92 -347.9,95.14 -531.2,95.14 -150.7,0 -687.6,0 -805.4,0 V 3806.43 h 419.1 v 857.71 h 508.4 l 511.8,-857.99 h 491.6 z M 12001.5,389.992 c -1257.6,0 -2398.69,506.707 -3231.26,1326.028 359.12,411.94 650.76,883.86 860.42,1397.92 h -426.27 c -181.93,-403.28 -419.26,-776.41 -703.66,-1108.43 -284.4,332.02 -521.74,705.15 -703.63,1108.43 h -426.28 c 209.66,-514.06 501.3,-985.98 860.42,-1397.92 C 7398.69,896.699 6257.6,389.992 5000,389.992 2458.03,389.992 390.004,2458.03 390.004,5000 c 0,2541.97 2068.026,4610.01 4609.996,4610.01 1257.6,0 2398.69,-506.71 3231.24,-1326.02 -359.12,-411.95 -650.76,-883.87 -860.42,-1397.93 h 426.28 c 181.89,403.28 419.23,776.42 703.63,1108.43 284.4,-332.01 521.73,-705.15 703.66,-1108.43 h 426.27 c -209.66,514.06 -501.3,985.98 -860.42,1397.93 832.57,819.31 1973.66,1326.02 3231.26,1326.02 2542,0 4610,-2068.04 4610,-4610.01 0,-2541.97 -2068,-4610.008 -4610,-4610.008 z m 0,9610.008 C 10638.3,10000 9402.72,9454.21 8500.73,8569.52 7598.77,9454.21 6363.23,10000 5000,10000 2238.59,10000 -0.00390625,7761.42 -0.00390625,5000 -0.00390625,2238.58 2238.59,0 5000,0 6363.23,0 7598.77,545.801 8500.73,1430.48 9402.72,545.801 10638.3,0 12001.5,0 c 2761.4,0 5000,2238.58 5000,5000 0,2761.42 -2238.6,5000 -5000,5000 z M 5000,4170.01 c -458.39,0 -829.99,371.6 -829.99,829.99 0,458.39 371.6,829.99 829.99,829.99 458.39,0 829.99,-371.6 829.99,-829.99 0,-458.39 -371.6,-829.99 -829.99,-829.99 z m 0,2067.49 c -683.45,0 -1237.5,-554.05 -1237.5,-1237.5 0,-683.45 554.05,-1237.5 1237.5,-1237.5 683.45,0 1237.5,554.05 1237.5,1237.5 0,683.45 -554.05,1237.5 -1237.5,1237.5"
         style="fill:#ffffff;fill-opacity:1;fill-rule:nonzero;stroke:none"
         id="path16" /></g></g></svg>
